<?xml version="1.0" standalone="no"?>
<!DOCTYPE svg PUBLIC "-//W3C//DTD SVG 20010904//EN"
 "http://www.w3.org/TR/2001/REC-SVG-20010904/DTD/svg10.dtd">
<svg version="1.0" xmlns="http://www.w3.org/2000/svg"
 width="754.000000pt" height="1280.000000pt" viewBox="0 0 754.000000 1280.000000"
 preserveAspectRatio="xMidYMid meet">
<metadata>
Created by potrace 1.15, written by Peter Selinger 2001-2017
</metadata>
<g transform="translate(0.000000,1280.000000) scale(0.100000,-0.100000)"
fill="#9e9e9e" stroke="none">
<path d="M3491 12790 c-940 -59 -1773 -278 -2506 -659 -305 -159 -366 -204
-419 -310 -35 -68 -44 -145 -51 -436 -3 -137 -10 -378 -15 -535 -6 -157 -10
-361 -11 -455 -2 -207 11 -251 98 -345 75 -81 141 -112 248 -118 109 -6 143 6
335 119 554 324 1345 616 1941 718 205 35 331 44 543 38 296 -8 501 -49 671
-131 177 -87 290 -196 370 -361 75 -154 101 -305 92 -535 -23 -590 -411 -1021
-1146 -1272 -335 -114 -658 -167 -1141 -188 -654 -28 -611 -25 -682 -59 -103
-49 -184 -148 -207 -253 -5 -23 -15 -207 -21 -408 -6 -201 -15 -501 -20 -667
-12 -383 -4 -428 91 -537 51 -58 106 -91 187 -111 56 -15 98 -15 474 -1 696
27 986 21 1310 -24 562 -79 1009 -287 1216 -568 111 -150 160 -291 169 -487
15 -321 -64 -628 -223 -872 -74 -115 -242 -283 -357 -358 -284 -184 -648 -281
-1183 -315 -681 -44 -1656 206 -2384 611 -80 44 -172 87 -205 96 -186 48 -390
-76 -444 -272 -13 -47 -54 -1283 -49 -1485 3 -124 5 -140 31 -192 47 -96 100
-140 260 -219 406 -198 879 -337 1409 -414 916 -132 1883 -88 2688 121 840
218 1536 602 2050 1130 254 261 439 523 595 839 170 346 259 642 311 1040 25
187 25 560 0 715 -135 855 -719 1528 -1670 1924 l-39 16 100 68 c247 168 535
431 713 652 340 421 538 862 617 1370 24 160 24 591 0 770 -59 425 -184 770
-391 1085 -475 721 -1283 1146 -2391 1260 -190 19 -750 28 -964 15z"/>
</g>
</svg>
